<svg width="116" height="110" viewBox="0 0 116 110" fill="none" xmlns="http://www.w3.org/2000/svg">
<path fill-rule="evenodd" clip-rule="evenodd" d="M0.279121 54.9458V109.719L57.8808 109.651L115.483 109.583V54.9458V0.308737L57.8808 0.240912L0.279121 0.172817V54.9458ZM115.341 54.9458V109.448H57.9517H0.562525V54.9458V0.443311H57.9517H115.341V54.9458ZM54.9663 4.77336C48.6164 5.18489 44.4183 6.79089 36.8424 11.7066C29.7304 16.3217 26.5432 17.3474 18.4169 17.6367L13.7408 17.8033L13.5098 20.764C13.206 24.661 13.4687 34.132 14.0029 38.5277C15.7847 53.1941 21.41 68.1577 29.6862 80.2456C31.5997 83.0405 35.5331 87.9691 37.5265 90.0695C39.03 91.6538 44.4325 96.6978 45.3402 97.3648C50.2445 100.969 54.0198 103.369 56.798 104.651L58.0259 105.218L59.6892 104.328C71.1662 98.1892 80.8714 88.8476 88.3441 76.7467C90.7653 72.8258 93.6367 67.1955 95.0699 63.5585C95.6531 62.0782 96.227 60.6829 96.3449 60.4582C96.6484 59.8792 98.1638 55.1452 99.0137 52.1197C100.466 46.9523 101.217 42.9854 102.05 36.1054C102.446 32.8307 102.534 22.9936 102.196 19.7886L101.979 17.7366L97.2529 17.5985C94.3727 17.5143 91.6415 17.278 90.2597 16.9937C88.1625 16.5623 84.5978 15.276 83.5997 14.5905C83.3659 14.4298 82.7617 14.0818 82.2572 13.8173C81.7525 13.5527 79.7757 12.303 77.8645 11.0405C71.9161 7.11118 66.8755 5.17358 61.8131 4.87025C60.4686 4.78978 59.0499 4.69154 58.6602 4.65198C58.2705 4.61214 56.6084 4.66678 54.9663 4.77336ZM65.7453 9.04662C69.4763 10.075 73.2322 11.9601 77.5065 14.9493C83.0513 18.8272 87.3981 20.2518 94.5765 20.5441L98.6099 20.708L98.8134 21.678C99.1461 23.2652 99.0435 33.9886 98.6651 37.182C96.4911 55.5344 89.925 71.4001 79.1165 84.4174C76.3842 87.7083 69.9314 93.8317 67.0206 95.8963C64.2384 97.8694 60.2031 100.39 58.8308 101.011C57.8381 101.461 57.7783 101.456 56.6058 100.849C52.2335 98.5851 44.1009 92.5791 41.2309 89.4946C38.2416 86.2821 36.7384 84.5668 35.2477 82.668C25.7273 70.5404 19.8413 56.3849 17.397 39.7389C16.8925 36.304 16.5601 26.2228 16.844 22.9844L17.0509 20.6294L19.7886 20.6278C22.7992 20.6262 27.0485 20.0887 29.4697 19.4032C31.8154 18.7392 35.1233 17.0164 39.2445 14.312C43.6299 11.4342 46.9114 9.84168 50.0164 9.08457C53.2126 8.30539 53.4345 8.28762 58.8019 8.37887C62.7296 8.44561 64.0126 8.56915 65.7453 9.04662ZM54.976 8.81031C51.9121 9.02321 49.7676 9.45573 47.5355 10.3113C45.8291 10.9656 43.0821 12.2659 42.7896 12.5579C42.7117 12.6357 40.9262 13.8014 38.822 15.1482C31.7593 19.6685 28.9731 20.6116 22.0422 20.8291L17.5902 20.9688L17.3995 22.177C17.0929 24.1194 17.4947 37.1806 17.9607 40.4118C19.7512 52.8297 24.2873 65.2197 30.9791 75.9719C32.4587 78.3487 36.3068 83.3702 38.7293 86.0848C43.7274 91.6852 50.5158 97.129 56.3037 100.178L57.7731 100.952L58.8543 100.464C62.7137 98.7224 69.6928 93.5857 74.0005 89.3162C79.7202 83.6474 84.5281 77.0081 88.5601 69.2106C93.3048 60.0343 96.1729 51.0716 97.7761 40.4118C98.4548 35.8984 98.8233 26.0546 98.4308 22.9172L98.195 21.0331L93.8022 20.8722C89.6206 20.7188 88.4136 20.5406 85.6532 19.6696C83.7485 19.0686 80.5534 17.4605 78.2745 15.9559C77.1231 15.1956 75.9053 14.4037 75.5683 14.196C75.2316 13.9884 74.4458 13.4886 73.8223 13.0852C68.4963 9.63929 62.5284 8.28574 54.976 8.81031ZM48.2162 29.0852C50.4049 29.9538 50.7249 30.9289 50.7243 36.7236C50.7241 41.9265 50.5149 42.7902 48.9998 43.8439C47.4298 44.9361 43.9252 44.7803 42.6397 43.5613C41.5271 42.506 41.4117 42.0428 41.2071 37.7946C40.9832 33.1504 41.3032 31.1017 42.4254 29.989C43.6772 28.7482 46.3251 28.3348 48.2162 29.0852ZM73.9212 29.167C74.4903 29.4219 75.1704 29.876 75.4323 30.1763C76.0413 30.8742 76.5146 32.6361 76.5146 34.206V35.4325H74.5427H72.5708L72.488 33.3749C72.4248 31.8066 72.293 31.2502 71.9331 31.0355C71.591 30.8314 71.3371 30.8514 71.0121 31.1073C70.341 31.6365 70.341 41.6509 71.0121 42.1801C71.8776 42.8624 72.3965 42.1561 72.4894 40.1698L72.5733 38.3692L74.4733 38.4483L76.3729 38.5277L76.3162 39.7389C76.1881 42.4737 75.761 43.3027 74.049 44.14C72.8338 44.7343 70.1409 44.7197 68.8724 44.112C67.0569 43.2424 66.7618 42.344 66.6411 37.3198C66.5227 32.3852 66.7528 31.05 67.9128 29.9486C69.2272 28.7003 72.0567 28.3324 73.9212 29.167ZM37.2352 29.2295C39.2638 29.6763 39.5305 30.1817 39.5305 33.5789C39.5305 36.5062 39.5174 36.5656 38.7352 37.2049C38.1361 37.6947 37.6087 37.8549 36.5956 37.8549C35.8562 37.8549 35.098 38.0002 34.911 38.1778C34.6885 38.3891 34.5709 39.5055 34.5709 41.4076V44.3144H32.7288H30.8867V36.6437V28.973L33.5082 28.9794C34.9501 28.9829 36.627 29.0954 37.2352 29.2295ZM56.6106 35.3652L56.6869 41.6229H57.9568H59.227V42.9776V44.3322L56.0387 44.256L52.8504 44.1798L52.7748 36.9169C52.7331 32.9222 52.7634 29.4949 52.8419 29.3005C52.944 29.0483 53.4929 28.97 54.7597 29.0273L56.5347 29.1076L56.6106 35.3652ZM64.6117 36.6561V44.3389L62.6987 44.2595L60.7857 44.1798L60.6982 36.9465C60.65 32.9682 60.6778 29.5465 60.7602 29.3431C60.8659 29.0814 61.4514 28.973 62.7608 28.973H64.6117V36.6561ZM85.0167 30.3039V31.6349L83.6705 31.7169L82.3244 31.799V33.4139V35.0288L83.5997 35.1634C84.8719 35.2977 84.8753 35.3009 84.962 36.4418C85.0465 37.5502 85.0224 37.5868 84.1827 37.6194C83.7063 37.6379 83.1888 37.6834 83.0329 37.7203C82.877 37.7572 82.616 37.8026 82.453 37.8212C82.2702 37.8419 82.1889 38.5509 82.2405 39.6716L82.3244 41.4884L83.8122 41.5696L85.3001 41.6512V42.9827V44.3144H81.8993H78.4984V36.6437V28.973H81.7576H85.0167V30.3039ZM45.4051 31.1722C44.9962 31.5606 44.9075 41.5204 45.3077 42.1203C45.4409 42.32 45.7897 42.4395 46.0828 42.386C46.5841 42.2942 46.6156 41.9545 46.6156 36.6437C46.6156 31.8058 46.5541 30.9878 46.1845 30.9203C45.9476 30.8767 45.5967 30.9902 45.4051 31.1722ZM34.7013 32.0152C34.6112 32.3562 34.5769 33.2939 34.6251 34.0986C34.6968 35.295 34.8127 35.58 35.2607 35.661C36.0548 35.8048 36.5547 34.9769 36.5547 33.5192C36.5547 31.8332 36.345 31.3953 35.5379 31.3953C35.072 31.3953 34.8146 31.5859 34.7013 32.0152ZM60.5633 58.4059L63.1417 63.3464L64.2311 63.4952C64.8299 63.5771 67.2969 63.9065 69.7129 64.227C72.1289 64.5476 74.2482 64.8515 74.4228 64.9023C74.5971 64.9532 72.8389 66.8001 70.5155 69.0066C67.8498 71.5382 66.3467 73.1598 66.4413 73.402C66.6587 73.9584 68.3305 83.667 68.2259 83.7661C68.1777 83.8121 65.8462 82.6984 63.045 81.291L57.9517 78.7325L55.1177 80.1302C53.5589 80.8986 51.2158 82.0619 49.9104 82.7148C48.6051 83.3678 47.5066 83.8668 47.4695 83.8234C47.432 83.7801 47.8282 81.3828 48.3494 78.4962C48.8709 75.6096 49.3 73.1463 49.3028 73.022C49.3056 72.8979 47.4269 71.0586 45.128 68.9347C42.2922 66.3151 41.0847 65.0318 41.3729 64.944C41.6067 64.8733 44.1525 64.4954 47.0302 64.1049C49.9081 63.7141 52.395 63.2901 52.5565 63.1628C52.7184 63.0355 53.9345 60.8091 55.2594 58.2151C56.5843 55.6213 57.7394 53.4915 57.8264 53.4824C57.9134 53.473 59.1451 55.6886 60.5633 58.4059Z" fill="white"/>
</svg>
